<svg width="1693" height="1369" viewBox="0 0 1693 1369" fill="none" xmlns="http://www.w3.org/2000/svg">
<path d="M1160.91 692.245L1160.91 692.246C1073.91 742.173 1007.35 819.329 966.508 907.823L966.506 907.826C925.969 997.158 912.999 1096.92 927.593 1193.79C893.483 1142.85 867.47 1082.44 849.563 1023.5C831.439 963.087 820.111 899.649 814.824 836.964C805.006 710.842 820.866 581.701 863.156 462.382C905.448 343.814 974.169 232.053 1067.8 145.218L1067.8 145.216C1113.86 102.175 1166.71 64.4277 1224.84 38.0074C1282.97 11.5847 1346.35 -4.25466 1411.22 1.78L1411.22 1.78016C1554.57 14.6054 1669.99 123.241 1689.6 264.309C1709.21 405.375 1627.74 541.166 1493.46 591.713C1466.29 601.521 1438.37 607.56 1409.66 613.605C1380.94 619.65 1352.22 625.696 1324.25 632.499C1295.52 639.304 1267.55 647.62 1240.34 656.691L1240.34 656.692C1211.6 666.524 1187.39 677.115 1160.91 692.245Z" fill="black"/>
<path d="M1160.91 692.245L1160.91 692.246C1073.91 742.173 1007.35 819.329 966.508 907.823L966.506 907.826C925.969 997.158 912.999 1096.92 927.593 1193.79C893.483 1142.85 867.47 1082.44 849.563 1023.5C831.439 963.087 820.111 899.649 814.824 836.964C805.006 710.842 820.866 581.701 863.156 462.382C905.448 343.814 974.169 232.053 1067.8 145.218L1067.8 145.216C1113.86 102.175 1166.71 64.4277 1224.84 38.0074C1282.97 11.5847 1346.35 -4.25466 1411.22 1.78L1411.22 1.78016C1554.57 14.6054 1669.99 123.241 1689.6 264.309C1709.21 405.375 1627.74 541.166 1493.46 591.713C1466.29 601.521 1438.37 607.56 1409.66 613.605C1380.94 619.65 1352.22 625.696 1324.25 632.499C1295.52 639.304 1267.55 647.62 1240.34 656.691L1240.34 656.692C1211.6 666.524 1187.39 677.115 1160.91 692.245Z" fill="url(#paint0_radial_168_19)"/>
<path d="M1160.91 692.245L1160.91 692.246C1073.91 742.173 1007.35 819.329 966.508 907.823L966.506 907.826C925.969 997.158 912.999 1096.92 927.593 1193.79C893.483 1142.85 867.47 1082.44 849.563 1023.5C831.439 963.087 820.111 899.649 814.824 836.964C805.006 710.842 820.866 581.701 863.156 462.382C905.448 343.814 974.169 232.053 1067.8 145.218L1067.8 145.216C1113.86 102.175 1166.71 64.4277 1224.84 38.0074C1282.97 11.5847 1346.35 -4.25466 1411.22 1.78L1411.22 1.78016C1554.57 14.6054 1669.99 123.241 1689.6 264.309C1709.21 405.375 1627.74 541.166 1493.46 591.713C1466.29 601.521 1438.37 607.56 1409.66 613.605C1380.94 619.65 1352.22 625.696 1324.25 632.499C1295.52 639.304 1267.55 647.62 1240.34 656.691L1240.34 656.692C1211.6 666.524 1187.39 677.115 1160.91 692.245Z" fill="url(#paint1_linear_168_19)"/>
<path d="M1160.91 692.245L1160.91 692.246C1073.91 742.173 1007.35 819.329 966.508 907.823L966.506 907.826C925.969 997.158 912.999 1096.92 927.593 1193.79C893.483 1142.85 867.47 1082.44 849.563 1023.5C831.439 963.087 820.111 899.649 814.824 836.964C805.006 710.842 820.866 581.701 863.156 462.382C905.448 343.814 974.169 232.053 1067.8 145.218L1067.8 145.216C1113.86 102.175 1166.71 64.4277 1224.84 38.0074C1282.97 11.5847 1346.35 -4.25466 1411.22 1.78L1411.22 1.78016C1554.57 14.6054 1669.99 123.241 1689.6 264.309C1709.21 405.375 1627.74 541.166 1493.46 591.713C1466.29 601.521 1438.37 607.56 1409.66 613.605C1380.94 619.65 1352.22 625.696 1324.25 632.499C1295.52 639.304 1267.55 647.62 1240.34 656.691L1240.34 656.692C1211.6 666.524 1187.39 677.115 1160.91 692.245Z" stroke="url(#paint2_linear_168_19)"/>
<path d="M1359.89 1022.13C1342.51 1001.73 1322.11 984.35 1298.68 971.504C1274.5 957.147 1251.83 948.835 1225.39 939.012C1201.21 929.945 1174.76 919.366 1156.62 899.72C1137.73 880.073 1131.69 852.871 1131.69 826.424C1022.12 939.012 976.029 1099.2 1000.21 1252.6C1016.08 1275.27 1034.97 1298.69 1056.13 1317.58C1140 1389.36 1265.43 1384.83 1344.77 1307.76C1424.11 1230.68 1430.92 1106.76 1359.89 1022.13Z" fill="black"/>
<path d="M521.567 280.488L521.568 280.488C594.801 344.661 650.675 426.204 688.43 514.551C726.183 603.647 743.551 700.298 742.796 796.201C742.046 889.167 723.431 989.564 683.271 1074.48C679.03 964.788 635.989 860.431 562.318 778.491C549.454 764.114 535.824 751.24 519.16 739.878C503.24 728.507 485.814 720.933 467.668 714.129L467.663 714.127C432.087 701.259 391.227 695.965 354.209 691.432L354.207 691.432C337.877 689.51 321.57 687.998 305.328 686.491C283.187 684.438 261.166 682.395 239.367 679.344C200.097 673.302 164.654 665.002 129.974 645.4C28.1639 587.329 -20.8548 468.93 9.31021 356.562C40.2313 244.948 142.798 166.513 260.451 166.513C358.51 166.513 452.85 220.077 521.567 280.488Z" fill="black"/>
<path d="M521.567 280.488L521.568 280.488C594.801 344.661 650.675 426.204 688.43 514.551C726.183 603.647 743.551 700.298 742.796 796.201C742.046 889.167 723.431 989.564 683.271 1074.48C679.03 964.788 635.989 860.431 562.318 778.491C549.454 764.114 535.824 751.24 519.16 739.878C503.24 728.507 485.814 720.933 467.668 714.129L467.663 714.127C432.087 701.259 391.227 695.965 354.209 691.432L354.207 691.432C337.877 689.51 321.57 687.998 305.328 686.491C283.187 684.438 261.166 682.395 239.367 679.344C200.097 673.302 164.654 665.002 129.974 645.4C28.1639 587.329 -20.8548 468.93 9.31021 356.562C40.2313 244.948 142.798 166.513 260.451 166.513C358.51 166.513 452.85 220.077 521.567 280.488Z" fill="url(#paint3_radial_168_19)"/>
<path d="M521.567 280.488L521.568 280.488C594.801 344.661 650.675 426.204 688.43 514.551C726.183 603.647 743.551 700.298 742.796 796.201C742.046 889.167 723.431 989.564 683.271 1074.48C679.03 964.788 635.989 860.431 562.318 778.491C549.454 764.114 535.824 751.24 519.16 739.878C503.24 728.507 485.814 720.933 467.668 714.129L467.663 714.127C432.087 701.259 391.227 695.965 354.209 691.432L354.207 691.432C337.877 689.51 321.57 687.998 305.328 686.491C283.187 684.438 261.166 682.395 239.367 679.344C200.097 673.302 164.654 665.002 129.974 645.4C28.1639 587.329 -20.8548 468.93 9.31021 356.562C40.2313 244.948 142.798 166.513 260.451 166.513C358.51 166.513 452.85 220.077 521.567 280.488Z" fill="url(#paint4_radial_168_19)"/>
<path d="M521.567 280.488L521.568 280.488C594.801 344.661 650.675 426.204 688.43 514.551C726.183 603.647 743.551 700.298 742.796 796.201C742.046 889.167 723.431 989.564 683.271 1074.48C679.03 964.788 635.989 860.431 562.318 778.491C549.454 764.114 535.824 751.24 519.16 739.878C503.24 728.507 485.814 720.933 467.668 714.129L467.663 714.127C432.087 701.259 391.227 695.965 354.209 691.432L354.207 691.432C337.877 689.51 321.57 687.998 305.328 686.491C283.187 684.438 261.166 682.395 239.367 679.344C200.097 673.302 164.654 665.002 129.974 645.4C28.1639 587.329 -20.8548 468.93 9.31021 356.562C40.2313 244.948 142.798 166.513 260.451 166.513C358.51 166.513 452.85 220.077 521.567 280.488Z" stroke="url(#paint5_linear_168_19)"/>
<path d="M503.763 827.186C494.696 817.363 484.873 807.54 474.294 798.472C487.895 821.141 488.651 846.832 483.362 871.012C478.072 895.192 465.226 917.861 450.114 937.507C434.246 957.154 415.355 973.022 394.953 988.134C376.818 1000.98 351.127 1017.6 334.503 1033.47C286.899 1079.56 277.076 1152.1 311.079 1208.78C345.082 1265.45 413.088 1292.65 477.316 1273.76C512.831 1263.94 542.3 1240.51 566.48 1214.07C590.66 1187.62 610.307 1155.88 625.419 1124.15C620.13 1014.58 577.815 909.549 503.763 827.186Z" fill="black"/>
<defs>
<radialGradient id="paint0_radial_168_19" cx="0" cy="0" r="1" gradientUnits="userSpaceOnUse" gradientTransform="translate(2189.3 161.471) rotate(151.649) scale(1464.65 1079.55)">
<stop stop-color="#338FFF"/>
<stop offset="0.71036" stop-color="#338FFF" stop-opacity="0"/>
</radialGradient>
<linearGradient id="paint1_linear_168_19" x1="1295.96" y1="577.381" x2="445.269" y2="262.827" gradientUnits="userSpaceOnUse">
<stop stop-opacity="0"/>
<stop offset="1" stop-color="#3786FF"/>
</linearGradient>
<linearGradient id="paint2_linear_168_19" x1="1541" y1="-12.1784" x2="937.5" y2="1033.32" gradientUnits="userSpaceOnUse">
<stop stop-color="#3B80FF"/>
<stop offset="0.19"/>
<stop offset="0.34" stop-color="#3B80FF"/>
<stop offset="0.56"/>
<stop offset="0.705" stop-color="#3B80FF"/>
<stop offset="0.855"/>
<stop offset="1" stop-color="#3B80FF"/>
</linearGradient>
<radialGradient id="paint3_radial_168_19" cx="0" cy="0" r="1" gradientUnits="userSpaceOnUse" gradientTransform="translate(598.352 6.29107) rotate(108.417) scale(716.853 1252.69)">
<stop stop-color="#368AFF"/>
<stop offset="1" stop-opacity="0"/>
</radialGradient>
<radialGradient id="paint4_radial_168_19" cx="0" cy="0" r="1" gradientUnits="userSpaceOnUse" gradientTransform="translate(-3.17589e-05 1114.92) rotate(-45.9902) scale(883.731 721.443)">
<stop stop-color="#348CFF"/>
<stop offset="1" stop-color="#348CFF" stop-opacity="0"/>
</radialGradient>
<linearGradient id="paint5_linear_168_19" x1="119" y1="152.322" x2="714.5" y2="1005.32" gradientUnits="userSpaceOnUse">
<stop offset="0.0566747" stop-color="#56A4FF"/>
<stop offset="0.311762"/>
<stop offset="0.444657" stop-color="#56A4FF"/>
<stop offset="0.581818"/>
<stop offset="0.815" stop-color="#56A4FF"/>
<stop offset="1"/>
</linearGradient>
</defs>
</svg>
